<svg xmlns="http://www.w3.org/2000/svg" xmlns:xlink="http://www.w3.org/1999/xlink" width="172.132" height="211.309" viewBox="0 0 172.132 211.309">
  <defs>
    <filter id="Rectangle_4" x="0.3" y="94.344" width="156.212" height="48.638" filterUnits="userSpaceOnUse">
      <feOffset dx="2" dy="2" input="SourceAlpha"/>
      <feGaussianBlur stdDeviation="3" result="blur"/>
      <feFlood flood-opacity="0.302"/>
      <feComposite operator="in" in2="blur"/>
      <feComposite in="SourceGraphic"/>
    </filter>
    <filter id="Path_1" x="8.533" y="116.234" width="139.623" height="95.075" filterUnits="userSpaceOnUse">
      <feOffset dx="2" dy="2" input="SourceAlpha"/>
      <feGaussianBlur stdDeviation="3" result="blur-2"/>
      <feFlood flood-opacity="0.302"/>
      <feComposite operator="in" in2="blur-2"/>
      <feComposite in="SourceGraphic"/>
    </filter>
    <filter id="Path_2" x="0" y="14.487" width="83.943" height="83.938" filterUnits="userSpaceOnUse">
      <feOffset dx="2" dy="2" input="SourceAlpha"/>
      <feGaussianBlur stdDeviation="3" result="blur-3"/>
      <feFlood flood-opacity="0.302"/>
      <feComposite operator="in" in2="blur-3"/>
      <feComposite in="SourceGraphic"/>
    </filter>
    <filter id="Line_9" x="20.831" y="35.886" width="70.53" height="70.53" filterUnits="userSpaceOnUse">
      <feOffset dx="2" dy="2" input="SourceAlpha"/>
      <feGaussianBlur stdDeviation="3" result="blur-4"/>
      <feFlood flood-opacity="0.302"/>
      <feComposite operator="in" in2="blur-4"/>
      <feComposite in="SourceGraphic"/>
    </filter>
    <filter id="Path_3" x="68.112" y="0" width="104.02" height="104.002" filterUnits="userSpaceOnUse">
      <feOffset dx="2" dy="2" input="SourceAlpha"/>
      <feGaussianBlur stdDeviation="3" result="blur-5"/>
      <feFlood flood-opacity="0.302"/>
      <feComposite operator="in" in2="blur-5"/>
      <feComposite in="SourceGraphic"/>
    </filter>
    <filter id="Line_10" x="62.05" y="28.588" width="80.615" height="77.826" filterUnits="userSpaceOnUse">
      <feOffset dx="2" dy="2" input="SourceAlpha"/>
      <feGaussianBlur stdDeviation="3" result="blur-6"/>
      <feFlood flood-opacity="0.302"/>
      <feComposite operator="in" in2="blur-6"/>
      <feComposite in="SourceGraphic"/>
    </filter>
    <filter id="Line_11" x="63.335" y="76.094" width="26" height="38.303" filterUnits="userSpaceOnUse">
      <feOffset dx="2" dy="2" input="SourceAlpha"/>
      <feGaussianBlur stdDeviation="3" result="blur-7"/>
      <feFlood flood-opacity="0.302"/>
      <feComposite operator="in" in2="blur-7"/>
      <feComposite in="SourceGraphic"/>
    </filter>
  </defs>
  <g id="Layer_2" data-name="Layer 2" transform="translate(11.005 11.006)">
    <g id="Layer_2-2" data-name="Layer 2">
      <g transform="matrix(1, 0, 0, 1, -11, -11.01)" filter="url(#Rectangle_4)">
        <rect id="Rectangle_4-2" data-name="Rectangle 4" width="130.212" height="22.638" rx="1" transform="translate(11.3 105.34)" fill="none" stroke="#b48f2a" stroke-linecap="round" stroke-linejoin="round" stroke-width="8"/>
      </g>
      <g transform="matrix(1, 0, 0, 1, -11, -11.01)" filter="url(#Path_1)">
        <path id="Path_1-2" data-name="Path 1" d="M3.26,29.52l13.9,64.962a4.1,4.1,0,0,0,4.1,3.363H97.382a4.1,4.1,0,0,0,4.1-3.363l13.9-64.962" transform="translate(17.02 98.46)" fill="none" stroke="#b48f2a" stroke-linecap="round" stroke-linejoin="round" stroke-width="8"/>
      </g>
      <g transform="matrix(1, 0, 0, 1, -11, -11.01)" filter="url(#Path_2)">
        <path id="Path_2-2" data-name="Path 2" d="M14.827,54.9A25.839,25.839,0,1,0,51.369,18.357C42.674,9.663,11.423,5.521,2.934,4.536A1.764,1.764,0,0,0,1.006,6.464C1.991,14.953,6.133,46.2,14.827,54.9Z" transform="translate(10.01 20.96)" fill="none" stroke="#b48f2a" stroke-linecap="round" stroke-linejoin="round" stroke-width="8"/>
      </g>
      <g transform="matrix(1, 0, 0, 1, -11, -11.01)" filter="url(#Line_9)">
        <line id="Line_9-2" data-name="Line 9" x2="41.217" y2="41.217" transform="translate(33.49 48.54)" fill="none" stroke="#b48f2a" stroke-linecap="round" stroke-linejoin="round" stroke-width="8"/>
      </g>
      <g transform="matrix(1, 0, 0, 1, -11, -11.01)" filter="url(#Path_3)">
        <path id="Path_3-2" data-name="Path 3" d="M27.8,19.587A34.8,34.8,0,1,0,77.011,68.8C88.7,57.113,94.277,15.076,95.59,3.674a2.338,2.338,0,0,0-2.543-2.666C81.522,2.321,39.486,7.9,27.8,19.587Z" transform="translate(61.51 10.01)" fill="none" stroke="#b48f2a" stroke-linecap="round" stroke-linejoin="round" stroke-width="8"/>
      </g>
      <g transform="matrix(1, 0, 0, 1, -11, -11.01)" filter="url(#Line_10)">
        <line id="Line_10-2" data-name="Line 10" x1="51.306" y2="48.517" transform="translate(74.7 41.24)" fill="none" stroke="#b48f2a" stroke-linecap="round" stroke-linejoin="round" stroke-width="8"/>
      </g>
      <g transform="matrix(1, 0, 0, 1, -11, -11.01)" filter="url(#Line_11)">
        <line id="Line_11-2" data-name="Line 11" y1="12.303" transform="translate(74.34 87.09)" fill="none" stroke="#b48f2a" stroke-linecap="round" stroke-linejoin="round" stroke-width="8"/>
      </g>
    </g>
  </g>
</svg>
